<svg height="24" viewBox="0 0 24 24" width="24" xmlns="http://www.w3.org/2000/svg"><path d="M22.245 4.015a.808.808 0 0 1 0 1.14l-6.276 6.27a.81.81 0 0 0 0 1.14l6.272 6.27a.81.81 0 0 1 0 1.14l-2.285 2.278a.814.814 0 0 1-1.142 0l-6.27-6.27a.81.81 0 0 0-1.142 0l-6.276 6.266a.81.81 0 0 1-1.14 0l-2.283-2.28a.81.81 0 0 1 0-1.14l6.278-6.27a.81.81 0 0 0 0-1.14L1.71 5.147a.808.808 0 0 1 0-1.14L3.992 1.73a.813.813 0 0 1 1.142 0L11.405 8a.81.81 0 0 0 1.14 0l6.277-6.266a.812.812 0 0 1 1.14 0l2.283 2.28z"/></svg>