<?xml version="1.0" encoding="utf-8"?><svg width="112" height="154" viewBox="0 0 112 154" xmlns="http://www.w3.org/2000/svg" xmlns:xlink="http://www.w3.org/1999/xlink"><svg id="icon-arrow_left" viewBox="0 0 27.1 21.1" width="27.1" height="21.1"><style>.ast0{fill:#a9a9a9}</style><path class="ast0" d="M0 10L10 0l2.1 2.1-6.9 7h21.9v3H5.2l6.9 6.9-2.1 2.1-10-10V10z"/></svg><svg id="icon-arrow_right" viewBox="0 0 27 21" width="27" height="21" y="22"><style>.bst0{fill:#a9a9a9}</style><path class="bst0" d="M27 11.1L17 21l-2.1-2.1 6.9-6.9H0V9h21.8l-6.9-6.9L17 0l10 9.9v1.2z"/></svg><svg viewBox="0 0 112 111" width="112" height="111" id="icon-magnifier" y="43"><style>.cst9{fill:#fff}</style><path class="cst9" d="M43.77-.04a37.6 37.6 0 0 1 11.74 1.76c22.71 7.46 34 35.13 25.2 55.21a4.42 4.42 0 0 0 .91 3.89c9.78 9.74 19.71 19.34 29.6 29a2.83 2.83 0 0 1 .37 2.12 16 16 0 0 1-2.75 7.73c-3.13 4.65-6.95 8.58-12.69 10.56-3.16 1.09-5.55.77-8-1.78-8.12-8.35-16.64-16.31-24.64-24.76-3.15-3.32-5.78-4-10.28-2.65C31.5 87.58 8.51 74.95 1.85 53.27A41.49 41.49 0 0 1 29.16 1.62a27.36 27.36 0 0 1 6.46-1.4c2.07-.18 4.14-.23 6.21-.23h1.91zm25.56 41.41a27.51 27.51 0 0 0-55-.36 27.51 27.51 0 0 0 55 .4z"/></svg></svg>