<?xml version="1.0" encoding="utf-8"?><svg width="112" height="153" viewBox="0 0 112 153" xmlns="http://www.w3.org/2000/svg" xmlns:xlink="http://www.w3.org/1999/xlink"><svg id="icon-arrow_left" viewBox="0 0 27 21" width="27" height="21"><style>.ast0{fill:#a9a9a9}</style><path class="ast0" d="M1 10.6c0-.7.2-1.3.7-1.8L9.2.9c.6-.6 1.5-.6 2.1 0 .6.6.6 1.5 0 2.1L5.2 9.1h21.9v3H5.2l6.1 6.1c.6.6.6 1.5 0 2.1-.6.6-1.5.6-2.1 0l-7.5-7.9c-.5-.5-.7-1.2-.7-1.8z"/></svg><svg viewBox="0 0 27 21" width="27" height="21" id="icon-arrow_right" y="21"><path fill="#a9a9a9" d="M26.1 10.5c0 .7-.2 1.3-.7 1.8l-7.5 7.9c-.6.6-1.5.6-2.1 0-.6-.6-.6-1.5 0-2.1l6.1-6.1H0V9h21.9l-6.1-6.1c-.6-.6-.6-1.5 0-2.1.6-.6 1.5-.6 2.1 0l7.5 7.9c.4.5.7 1.1.7 1.8z"/></svg><svg viewBox="0 0 112 111" width="112" height="111" id="icon-magnifier" y="42"><style>.cst9{fill:#fff}</style><path class="cst9" d="M43.77-.04a37.6 37.6 0 0 1 11.74 1.76c22.71 7.46 34 35.13 25.2 55.21a4.42 4.42 0 0 0 .91 3.89c9.78 9.74 19.71 19.34 29.6 29a2.83 2.83 0 0 1 .37 2.12 16 16 0 0 1-2.75 7.73c-3.13 4.65-6.95 8.58-12.69 10.56-3.16 1.09-5.55.77-8-1.78-8.12-8.35-16.64-16.31-24.64-24.76-3.15-3.32-5.78-4-10.28-2.65C31.5 87.58 8.51 74.95 1.85 53.27A41.49 41.49 0 0 1 29.16 1.62a27.36 27.36 0 0 1 6.46-1.4c2.07-.18 4.14-.23 6.21-.23h1.91zm25.56 41.41a27.51 27.51 0 0 0-55-.36 27.51 27.51 0 0 0 55 .4z"/></svg></svg>